<svg version="1.1" id="Layer_1" xmlns="http://www.w3.org/2000/svg" xmlns:xlink="http://www.w3.org/1999/xlink" x="0px" y="0px"
	 width="100%" viewBox="0 0 68 65" enable-background="new 0 0 68 65" xml:space="preserve">
<path fill="#FFFFFF" opacity="1.000000" stroke="none" 
	d="
M1.000000,17.000000 
	C1.000000,11.689012 1.000000,6.378024 1.000000,1.033518 
	C23.549314,1.033518 46.098690,1.033518 69.000000,1.033518 
	C69.000000,7.683276 69.000000,14.372725 68.662788,21.481754 
	C66.939018,21.283995 65.552452,20.666655 64.091354,19.683062 
	C63.028919,17.176922 62.041012,15.037034 60.927277,12.614691 
	C59.882420,11.518762 58.963394,10.705289 57.968887,9.673389 
	C57.538528,9.171668 57.183643,8.888373 56.536049,8.369876 
	C54.843132,7.718368 53.442924,7.302062 51.809937,6.565672 
	C49.716640,6.219363 47.856121,6.193139 45.614330,6.086848 
	C43.487862,5.726790 41.742668,5.446798 39.563503,5.101438 
	C37.085442,5.079537 35.041351,5.123006 32.556686,5.101078 
	C29.742924,5.079368 27.369738,5.123055 24.554020,5.101599 
	C18.849997,4.356683 13.914091,5.321767 10.079319,9.064717 
	C7.733384,11.354481 6.081092,14.354903 3.726959,17.020039 
	C2.557758,17.002607 1.778879,17.001303 1.000000,17.000000 
z"/>
<path fill="#9851FF" opacity="1.000000" stroke="none" 
	d="
M31.000000,66.000000 
	C29.285625,66.000000 27.571249,66.000000 25.371592,65.677330 
	C24.258408,65.181999 23.630508,65.009331 23.043766,64.497551 
	C25.701057,61.116734 28.284821,58.046410 30.942461,55.041420 
	C33.588993,52.048985 36.309669,49.122128 39.396996,46.101944 
	C45.483147,46.375198 47.357510,42.743023 48.524208,37.993950 
	C51.056580,36.690750 53.360611,35.567585 55.372246,34.055431 
	C58.304661,31.851120 61.026756,29.367020 63.903481,27.435795 
	C63.925407,29.912790 63.882374,31.956190 63.497684,34.042015 
	C61.267536,35.392784 59.197258,36.503254 57.521259,38.042912 
	C49.201481,45.685894 40.923790,53.378098 32.805824,61.233349 
	C31.700943,62.302475 31.577736,64.386101 31.000000,66.000000 
z"/>
<path fill="#9B4FFF" opacity="1.000000" stroke="none" 
	d="
M31.416664,66.000000 
	C31.577736,64.386101 31.700943,62.302475 32.805824,61.233349 
	C40.923790,53.378098 49.201481,45.685894 57.521259,38.042912 
	C59.197258,36.503254 61.267536,35.392784 63.562393,34.467319 
	C63.924843,36.567268 63.880928,38.284328 63.500355,40.044418 
	C56.520374,45.813713 49.778584,51.431461 43.285130,57.322914 
	C40.890709,59.495358 39.081764,62.313103 36.762833,64.962280 
	C36.346592,65.392021 36.173298,65.696014 36.000000,66.000000 
	C34.611111,66.000000 33.222221,66.000000 31.416664,66.000000 
z"/>
<path fill="#F9FAFA" opacity="1.000000" stroke="none" 
	d="
M63.837013,40.001392 
	C63.880928,38.284328 63.924843,36.567268 63.904045,34.424896 
	C63.882374,31.956190 63.925407,29.912790 63.967865,26.998356 
	C63.920685,24.065252 63.874077,22.003180 63.911808,19.969004 
	C63.996143,19.996899 64.165894,20.049313 64.165894,20.049313 
	C65.552452,20.666655 66.939018,21.283995 68.662788,21.950668 
	C69.000000,28.354399 69.000000,34.708797 68.604477,41.621681 
	C67.833817,42.676441 67.201134,43.135117 67.122383,43.674652 
	C66.037003,51.109928 65.027847,58.556328 64.000000,66.000000 
	C62.933331,66.000000 61.866661,66.000000 60.399940,65.625740 
	C60.002430,64.502975 60.004974,63.754467 60.364944,62.963615 
	C63.312572,61.075607 65.753616,59.196720 62.355453,55.639572 
	C62.908855,52.521252 63.371796,49.760189 63.912537,46.637550 
	C63.939232,44.184452 63.888126,42.092922 63.837013,40.001392 
z"/>
<path fill="#FCFCFC" opacity="1.000000" stroke="none" 
	d="
M64.499962,66.000000 
	C65.027847,58.556328 66.037003,51.109928 67.122383,43.674652 
	C67.201134,43.135117 67.833817,42.676441 68.604477,42.090088 
	C69.000000,50.000050 69.000000,58.000103 69.000000,66.000000 
	C67.619812,66.000000 66.309868,66.000000 64.499962,66.000000 
z"/>
<path fill="#F5F5F5" opacity="1.000000" stroke="none" 
	d="
M1.000000,58.000000 
	C1.000000,51.645603 1.000000,45.291203 1.305891,38.468292 
	C2.019635,37.999138 2.427489,37.998505 2.919683,38.247063 
	C3.058833,38.662834 3.113643,38.829422 3.103247,39.421318 
	C3.080935,41.563549 3.123829,43.280460 3.102314,45.411575 
	C3.412034,48.215408 3.786164,50.605045 4.205518,53.327515 
	C4.847781,55.074039 5.444819,56.487728 6.025554,58.313141 
	C6.006100,59.816631 6.002950,60.908398 5.660927,61.951351 
	C3.881369,60.601692 2.440685,59.300846 1.000000,58.000000 
z"/>
<path fill="#F7F7F7" opacity="1.000000" stroke="none" 
	d="
M2.835343,37.997871 
	C2.427489,37.998505 2.019635,37.999138 1.305891,37.999886 
	C1.000000,32.977909 1.000000,27.955816 1.355469,22.466909 
	C2.418399,21.998663 3.125859,21.997231 3.904005,22.326809 
	C4.039039,23.103718 4.103388,23.549614 4.081127,24.392815 
	C3.718215,27.193005 3.441914,29.595892 3.099992,32.423508 
	C2.968029,34.564785 2.901686,36.281326 2.835343,37.997871 
z"/>
<path fill="#F9F9FA" opacity="1.000000" stroke="none" 
	d="
M1.000000,58.494736 
	C2.440685,59.300846 3.881369,60.601692 5.909935,61.951900 
	C6.497818,62.001259 6.995827,62.001865 7.103977,62.221481 
	C7.411578,62.715305 7.673187,62.902809 7.998477,63.001831 
	C8.000000,63.000065 7.997296,63.002483 7.900631,63.252712 
	C7.869310,64.335297 7.934655,65.167648 8.000000,66.000000 
	C5.745431,66.000000 3.490863,66.000000 1.000000,66.000000 
	C1.000000,63.665676 1.000000,61.327572 1.000000,58.494736 
z"/>
<path fill="#E7E7E8" opacity="1.000000" stroke="none" 
	d="
M16.000000,66.000000 
	C14.285625,66.000000 12.571250,66.000000 10.428671,65.661621 
	C9.667946,64.548073 9.335425,63.772915 9.003354,62.646217 
	C9.018327,61.826130 9.032849,61.357586 9.351467,61.037468 
	C11.438076,62.071018 13.220589,62.956135 15.254080,63.933289 
	C15.666420,64.100975 15.827782,64.176628 15.991509,64.543564 
	C15.995917,65.223228 15.997959,65.611618 16.000000,66.000000 
z"/>
<path fill="#FBFBFB" opacity="1.000000" stroke="none" 
	d="
M3.833320,21.995798 
	C3.125859,21.997231 2.418399,21.998663 1.355469,22.000048 
	C1.000000,20.611002 1.000000,19.222006 1.000000,17.416504 
	C1.778879,17.001303 2.557758,17.002607 3.740062,17.436581 
	C4.040099,19.244764 3.936710,20.620281 3.833320,21.995798 
z"/>
<path fill="#F1F1F2" opacity="1.000000" stroke="none" 
	d="
M60.007515,63.005962 
	C60.004974,63.754467 60.002430,64.502975 59.999943,65.625740 
	C58.933483,66.000000 57.866962,66.000000 56.378151,65.698013 
	C55.626873,64.925407 55.297897,64.454788 55.124100,63.729866 
	C56.307320,62.888767 57.335361,62.301971 58.691174,61.860573 
	C59.348469,62.339298 59.677990,62.672630 60.007515,63.005962 
z"/>
<path fill="#BB7EFC" opacity="1.000000" stroke="none" 
	d="
M36.466118,66.000000 
	C36.173298,65.696014 36.346592,65.392021 37.198227,65.005165 
	C39.918434,64.926399 41.960300,64.930496 44.438465,64.958023 
	C46.912407,64.985931 48.950050,64.990410 50.938099,65.246811 
	C50.925671,65.665825 50.962833,65.832909 51.000000,66.000000 
	C46.310745,66.000000 41.621487,66.000000 36.466118,66.000000 
z"/>
<path fill="#E1E1E2" opacity="1.000000" stroke="none" 
	d="
M16.428720,66.000000 
	C15.997959,65.611618 15.995917,65.223228 16.370642,64.509720 
	C18.497469,64.502060 20.247528,64.819534 21.998444,65.352768 
	C21.999298,65.568512 22.000000,66.000000 22.000000,66.000000 
	C20.285814,66.000000 18.571627,66.000000 16.428720,66.000000 
z"/>
<path fill="#F0F0F1" opacity="1.000000" stroke="none" 
	d="
M9.002904,62.997757 
	C9.335425,63.772915 9.667946,64.548073 10.000234,65.661621 
	C9.555555,66.000000 9.111111,66.000000 8.333333,66.000000 
	C7.934655,65.167648 7.869310,64.335297 8.152064,63.251431 
	C8.667744,62.999195 8.835323,62.998474 9.002904,62.997757 
z"/>
<path fill="#E9E9EA" opacity="1.000000" stroke="none" 
	d="
M54.968918,63.984169 
	C55.297897,64.454788 55.626873,64.925407 55.977928,65.698013 
	C55.555553,66.000000 55.111111,66.000000 54.217838,65.774887 
	C53.495602,65.360146 53.222191,65.170525 53.109230,64.727020 
	C53.836094,64.310143 54.402504,64.147156 54.968918,63.984169 
z"/>
<path fill="#DFDEE1" opacity="1.000000" stroke="none" 
	d="
M22.375000,66.000000 
	C22.000000,66.000000 21.999298,65.568512 22.250317,65.279617 
	C22.668427,64.939384 22.835518,64.888031 23.002609,64.836670 
	C23.630508,65.009331 24.258408,65.181999 24.943153,65.677330 
	C24.250000,66.000000 23.500000,66.000000 22.375000,66.000000 
z"/>
<path fill="#E5E5E6" opacity="1.000000" stroke="none" 
	d="
M52.948780,64.980904 
	C53.222191,65.170525 53.495602,65.360146 53.884506,65.774887 
	C53.250000,66.000000 52.500000,66.000000 51.375000,66.000000 
	C50.962833,65.832909 50.925671,65.665825 51.265129,65.249176 
	C52.077431,64.993378 52.513107,64.987144 52.948780,64.980904 
z"/>
<path fill="#7D59FF" opacity="1.000000" stroke="none" 
	d="
M3.166722,44.997375 
	C3.123829,43.280460 3.080935,41.563549 3.442973,39.380348 
	C4.747498,38.508686 5.833034,38.303875 6.518907,37.667984 
	C17.503633,27.483734 28.444410,17.251970 39.355717,6.989052 
	C39.772358,6.597170 39.792545,5.783781 39.997475,5.166806 
	C41.742668,5.446798 43.487862,5.726790 45.573776,6.419186 
	C44.784203,8.213180 43.769371,9.712221 42.503857,10.956258 
	C36.670570,16.690559 30.767429,22.353802 24.466829,28.024601 
	C22.790680,28.097120 21.537039,28.187561 20.196281,28.284286 
	C20.060600,30.419231 19.946867,32.208828 19.478149,34.004181 
	C16.926001,35.662708 14.786087,37.399349 12.517667,38.947731 
	C9.452389,41.040024 6.288373,42.987667 3.166722,44.997375 
z"/>
<path fill="#795AFF" opacity="1.000000" stroke="none" 
	d="
M39.563503,5.101437 
	C39.792545,5.783781 39.772358,6.597170 39.355717,6.989052 
	C28.444410,17.251970 17.503633,27.483734 6.518907,37.667984 
	C5.833034,38.303875 4.747498,38.508686 3.508179,38.955032 
	C3.113643,38.829422 3.058833,38.662834 2.919683,38.247063 
	C2.901686,36.281326 2.968029,34.564785 3.456033,32.418083 
	C5.860017,30.878723 8.128049,30.086601 9.773715,28.603767 
	C15.912539,23.072361 21.914358,17.382996 27.820539,11.602652 
	C29.774351,9.690466 31.284346,7.324802 32.997261,5.166475 
	C35.041351,5.123006 37.085442,5.079537 39.563503,5.101437 
z"/>
<path fill="#755BFF" opacity="1.000000" stroke="none" 
	d="
M32.556686,5.101078 
	C31.284346,7.324802 29.774351,9.690466 27.820539,11.602652 
	C21.914358,17.382996 15.912539,23.072361 9.773715,28.603767 
	C8.128049,30.086601 5.860017,30.878723 3.521653,31.993355 
	C3.441914,29.595892 3.718215,27.193005 4.421087,24.351990 
	C9.640626,20.033697 14.565890,16.302361 19.169899,12.209633 
	C21.420525,10.208940 23.073219,7.535618 24.996550,5.166741 
	C27.369738,5.123055 29.742924,5.079368 32.556686,5.101078 
z"/>
<path fill="#6F5CFF" opacity="1.000000" stroke="none" 
	d="
M24.554020,5.101599 
	C23.073219,7.535618 21.420525,10.208940 19.169899,12.209633 
	C14.565890,16.302361 9.640626,20.033697 4.507698,23.954685 
	C4.103388,23.549614 4.039039,23.103718 3.904005,22.326809 
	C3.936710,20.620281 4.040099,19.244764 4.130385,17.452705 
	C6.081092,14.354903 7.733384,11.354481 10.079319,9.064717 
	C13.914091,5.321767 18.849997,4.356683 24.554020,5.101599 
z"/>
<path fill="#8258FF" opacity="1.000000" stroke="none" 
	d="
M24.889338,28.042524 
	C30.767429,22.353802 36.670570,16.690559 42.503857,10.956258 
	C43.769371,9.712221 44.784203,8.213180 45.955048,6.499252 
	C47.856121,6.193139 49.716640,6.219363 51.767548,6.920043 
	C50.670986,9.046474 49.411053,10.523498 48.092278,11.945972 
	C43.095867,17.335272 38.080395,22.706898 33.060654,28.063618 
	C33.049255,28.042101 33.092175,28.055449 32.715797,28.041969 
	C29.948566,29.018400 27.557714,30.008308 25.102018,30.632191 
	C24.987896,29.524952 24.938618,28.783737 24.889338,28.042524 
z"/>
<path fill="#8A55FF" opacity="1.000000" stroke="none" 
	d="
M58.044365,9.891815 
	C58.963394,10.705289 59.882420,11.518762 60.779953,12.925305 
	C58.940617,15.144547 56.932976,16.605852 55.346176,18.432701 
	C52.433704,21.785761 49.769291,25.354280 46.604786,28.897816 
	C45.083229,29.974518 43.958355,30.986378 42.444603,31.998808 
	C40.759377,31.998995 39.463028,31.998611 38.101898,31.632109 
	C37.986656,30.524725 37.936199,29.783459 38.195415,28.901642 
	C45.018181,22.471331 51.531273,16.181574 58.044365,9.891815 
z"/>
<path fill="#8F54FF" opacity="1.000000" stroke="none" 
	d="
M47.001469,28.832977 
	C49.769291,25.354280 52.433704,21.785761 55.346176,18.432701 
	C56.932976,16.605852 58.940617,15.144547 60.905781,13.207762 
	C62.041012,15.037034 63.028919,17.176922 64.091354,19.683060 
	C64.165894,20.049313 63.996143,19.996899 63.578712,20.030384 
	C62.256695,20.726456 61.353481,21.390921 60.447296,22.051308 
	C56.354206,25.034174 52.260273,28.015884 48.093803,30.679211 
	C47.681137,29.851263 47.341305,29.342121 47.001469,28.832977 
z"/>
<path fill="#8657FF" opacity="1.000000" stroke="none" 
	d="
M33.072052,28.085135 
	C38.080395,22.706898 43.095867,17.335272 48.092278,11.945972 
	C49.411053,10.523498 50.670986,9.046474 52.000328,7.240128 
	C53.442924,7.302062 54.843132,7.718368 56.156639,8.521000 
	C51.300552,13.184299 46.385990,17.314011 41.829010,21.806440 
	C39.841625,23.765675 38.587223,26.468424 36.656521,28.888294 
	C35.232746,28.657097 34.152401,28.371117 33.072052,28.085135 
z"/>
<path fill="#8856FF" opacity="1.000000" stroke="none" 
	d="
M36.999947,28.833511 
	C38.587223,26.468424 39.841625,23.765675 41.829010,21.806440 
	C46.385990,17.314011 51.300552,13.184299 56.449348,8.756203 
	C57.183643,8.888373 57.538528,9.171668 57.968887,9.673389 
	C51.531273,16.181574 45.018181,22.471331 37.969826,28.867149 
	C37.434563,28.973207 36.999943,28.833509 36.999947,28.833511 
z"/>
<path fill="#FFFFFF" opacity="1.000000" stroke="none" 
	d="
M36.656517,28.888294 
	C36.999943,28.833509 37.434563,28.973207 37.660152,29.007702 
	C37.936199,29.783459 37.986656,30.524725 38.036453,32.069675 
	C38.679676,35.696613 36.054722,39.848988 41.739178,41.308704 
	C42.136749,37.926105 42.485115,34.962170 42.833481,31.998238 
	C43.958355,30.986378 45.083229,29.974518 46.604786,28.897818 
	C47.341305,29.342121 47.681137,29.851263 48.027924,31.113213 
	C48.078304,33.910713 48.121735,35.955406 48.165161,38.000103 
	C47.357510,42.743023 45.483147,46.375198 39.056969,46.027058 
	C36.896019,45.310287 35.474239,44.603832 34.014091,43.531124 
	C33.558823,41.778091 33.141922,40.391308 32.769958,38.567329 
	C32.821117,36.086994 32.827339,34.043858 32.898460,31.609879 
	C33.006298,30.164505 33.049236,29.109978 33.092175,28.055449 
	C33.092175,28.055449 33.049255,28.042101 33.060654,28.063618 
	C34.152401,28.371117 35.232746,28.657097 36.656517,28.888294 
z"/>
<path fill="#9253FF" opacity="1.000000" stroke="none" 
	d="
M34.052464,43.897377 
	C35.474239,44.603832 36.896019,45.310287 38.657818,46.091633 
	C36.309669,49.122128 33.588993,52.048985 30.942461,55.041420 
	C28.284821,58.046410 25.701057,61.116734 23.043766,64.497551 
	C22.835518,64.888031 22.668427,64.939384 22.249462,65.063873 
	C20.247528,64.819534 18.497469,64.502060 16.368275,64.218430 
	C15.827782,64.176628 15.666420,64.100975 15.294549,63.601452 
	C21.406847,56.750843 27.729656,50.324112 34.052464,43.897377 
z"/>
<path fill="#9452FF" opacity="1.000000" stroke="none" 
	d="
M48.524208,37.993950 
	C48.121735,35.955406 48.078304,33.910713 48.100761,31.432014 
	C52.260273,28.015884 56.354206,25.034174 60.447296,22.051308 
	C61.353481,21.390921 62.256695,20.726456 63.494377,20.002491 
	C63.874077,22.003180 63.920685,24.065252 63.902901,26.564762 
	C61.026756,29.367020 58.304661,31.851120 55.372246,34.055431 
	C53.360611,35.567585 51.056580,36.690750 48.524208,37.993950 
z"/>
<path fill="#9F4EFF" opacity="1.000000" stroke="none" 
	d="
M44.002167,64.934586 
	C41.960300,64.930496 39.918434,64.926399 37.441174,64.879410 
	C39.081764,62.313103 40.890709,59.495358 43.285130,57.322914 
	C49.778584,51.431461 56.520374,45.813713 63.500359,40.044418 
	C63.888126,42.092922 63.939232,44.184452 63.553940,46.643967 
	C54.679600,50.782513 49.262203,57.774635 44.002167,64.934586 
z"/>
<path fill="#A34CFF" opacity="1.000000" stroke="none" 
	d="
M44.438465,64.958023 
	C49.262203,57.774635 54.679600,50.782513 63.476135,47.005535 
	C63.371796,49.760189 62.908855,52.521252 62.176903,55.940258 
	C60.726395,58.303856 59.544899,60.009518 58.363403,61.715176 
	C57.335361,62.301971 56.307320,62.888767 55.124100,63.729866 
	C54.402504,64.147156 53.836094,64.310143 53.109230,64.727020 
	C52.513107,64.987144 52.077431,64.993378 51.314728,64.997253 
	C48.950050,64.990410 46.912407,64.985931 44.438465,64.958023 
z"/>
<path fill="#F3F4F4" opacity="1.000000" stroke="none" 
	d="
M58.691174,61.860573 
	C59.544899,60.009518 60.726395,58.303856 62.086437,56.297516 
	C65.753616,59.196720 63.312572,61.075607 60.364944,62.963615 
	C59.677990,62.672630 59.348469,62.339298 58.691174,61.860573 
z"/>
<path fill="#8258FF" opacity="1.000000" stroke="none" 
	d="
M3.102314,45.411575 
	C6.288373,42.987667 9.452389,41.040024 12.517667,38.947731 
	C14.786087,37.399349 16.926001,35.662708 19.543949,34.416264 
	C19.587549,37.548542 19.210367,40.274487 18.491905,43.042931 
	C15.675443,44.981930 13.248134,46.945614 10.710267,48.754158 
	C8.594233,50.262093 6.348553,51.588100 4.160293,52.994682 
	C3.786164,50.605045 3.412034,48.215408 3.102314,45.411575 
z"/>
<path fill="#8856FF" opacity="1.000000" stroke="none" 
	d="
M4.205517,53.327515 
	C6.348553,51.588100 8.594233,50.262093 10.710267,48.754158 
	C13.248134,46.945614 15.675443,44.981930 18.661495,43.359322 
	C20.447754,44.144325 21.723145,44.655434 22.956383,45.500084 
	C21.785686,47.212872 20.765980,48.701809 19.507736,49.950356 
	C16.041107,53.390255 12.474615,56.729515 8.667194,59.980709 
	C7.605128,59.202362 6.823493,58.551888 6.041858,57.901417 
	C5.444819,56.487728 4.847781,55.074039 4.205517,53.327515 
z"/>
<path fill="#EDEDEE" opacity="1.000000" stroke="none" 
	d="
M6.025555,58.313141 
	C6.823493,58.551888 7.605128,59.202362 8.690455,60.175995 
	C8.994147,60.499161 9.047372,60.889042 9.047372,60.889042 
	C9.032849,61.357586 9.018327,61.826130 9.003354,62.646217 
	C8.835323,62.998474 8.667744,62.999195 8.248730,63.001202 
	C7.997296,63.002483 8.000000,63.000065 7.891538,62.781288 
	C7.583467,62.287445 7.321050,62.100563 6.995827,62.001865 
	C6.995827,62.001865 6.497818,62.001259 6.248809,62.000710 
	C6.002950,60.908398 6.006100,59.816631 6.025555,58.313141 
z"/>
<path fill="#F0F0F1" opacity="1.000000" stroke="none" 
	d="
M7.103977,62.221481 
	C7.321050,62.100563 7.583467,62.287445 7.890015,62.783054 
	C7.673187,62.902809 7.411578,62.715305 7.103977,62.221481 
z"/>
<path fill="#8E54FF" opacity="1.000000" stroke="none" 
	d="
M9.351467,61.037468 
	C9.047372,60.889042 8.994147,60.499161 8.970886,60.303871 
	C12.474615,56.729515 16.041107,53.390255 19.507736,49.950356 
	C20.765980,48.701809 21.785686,47.212872 23.389385,45.434662 
	C25.804728,45.035706 27.744921,45.035706 29.950840,45.035706 
	C29.950840,43.365158 29.950840,42.234249 30.079363,40.820152 
	C31.046930,40.026154 31.885975,39.515339 32.725021,39.004524 
	C33.141922,40.391308 33.558823,41.778091 34.014091,43.531124 
	C27.729656,50.324112 21.406847,56.750843 15.043570,63.509415 
	C13.220589,62.956135 11.438076,62.071018 9.351467,61.037468 
z"/>
<path fill="#FEFEFF" opacity="1.000000" stroke="none" 
	d="
M29.950840,41.103340 
	C29.950840,42.234249 29.950840,43.365158 29.950840,45.035706 
	C27.744921,45.035706 25.804728,45.035706 23.431536,45.101124 
	C21.723145,44.655434 20.447754,44.144325 19.002773,43.316826 
	C19.210367,40.274487 19.587549,37.548542 19.898933,34.410511 
	C19.946867,32.208828 20.060600,30.419231 20.196281,28.284286 
	C21.537039,28.187561 22.790680,28.097120 24.466829,28.024601 
	C24.938618,28.783737 24.987896,29.524952 25.036091,31.029068 
	C25.078218,32.860874 25.121433,33.929771 25.096848,35.409401 
	C24.379583,39.714603 25.992973,41.501019 29.950840,41.103340 
z"/>
<path fill="#8657FF" opacity="1.000000" stroke="none" 
	d="
M25.164648,34.998672 
	C25.121433,33.929771 25.078218,32.860874 25.100933,31.395096 
	C27.557714,30.008308 29.948566,29.018400 32.715797,28.041969 
	C33.049236,29.109978 33.006298,30.164505 32.557102,31.655052 
	C29.822115,33.060272 27.493382,34.029472 25.164648,34.998672 
z"/>
<path fill="#8E54FF" opacity="1.000000" stroke="none" 
	d="
M42.444603,31.998808 
	C42.485115,34.962170 42.136749,37.926105 41.739178,41.308704 
	C36.054722,39.848988 38.679676,35.696613 38.101234,32.435795 
	C39.463028,31.998611 40.759377,31.998995 42.444603,31.998808 
z"/>
<path fill="#8856FF" opacity="1.000000" stroke="none" 
	d="
M25.096848,35.409401 
	C27.493382,34.029472 29.822115,33.060272 32.492203,32.045898 
	C32.827339,34.043858 32.821117,36.086994 32.769958,38.567329 
	C31.885975,39.515339 31.046930,40.026154 30.079363,40.820152 
	C25.992973,41.501019 24.379583,39.714603 25.096848,35.409401 
z"/>
</svg>